<?xml version="1.0" standalone="no"?>
<!DOCTYPE svg PUBLIC "-//W3C//DTD SVG 20010904//EN"
 "http://www.w3.org/TR/2001/REC-SVG-20010904/DTD/svg10.dtd">
<svg version="1.0" xmlns="http://www.w3.org/2000/svg"
 width="728.000000pt" height="206.000000pt" viewBox="0 0 728.000000 206.000000"
 preserveAspectRatio="xMidYMid meet">

<g transform="translate(0.000000,206.000000) scale(0.100000,-0.100000)"
fill="#000000" stroke="none">
<path d="M725 1458 c-32 -11 -92 -52 -113 -78 -38 -46 -55 -98 -60 -181 l-5
-86 43 -7 c26 -4 47 -3 54 4 14 14 59 13 77 -2 9 -7 21 -33 28 -56 11 -39 10
-45 -6 -58 -40 -32 -52 -35 -91 -23 -20 6 -51 9 -67 7 -29 -3 -30 -4 -33 -66
-5 -96 19 -164 77 -222 71 -71 110 -80 351 -80 241 0 280 9 350 80 35 34 53
62 64 101 18 60 21 139 5 139 -6 0 -9 12 -7 27 4 34 -19 42 -28 9 -3 -14 -10
-24 -14 -21 -5 3 -6 14 -3 24 3 10 0 22 -6 25 -6 4 -13 -4 -17 -19 -8 -33 -23
-23 -16 11 6 34 -19 28 -29 -7 -7 -24 -10 -21 -13 13 -2 26 -21 26 -24 0 -2
-12 -7 -20 -12 -17 -4 3 -6 14 -3 24 3 10 0 22 -6 25 -6 4 -13 -4 -17 -19 -8
-32 -23 -33 -21 -1 3 31 -17 39 -21 9 -6 -42 -17 -24 -17 27 0 51 9 66 18 30
8 -30 30 -25 25 5 -6 30 7 34 15 5 8 -30 30 -25 25 5 -6 30 7 34 15 5 8 -30
30 -25 25 5 -6 30 7 34 15 5 8 -30 30 -25 25 5 -6 30 7 34 15 5 8 -30 30 -25
25 5 -6 30 8 34 17 5 9 -28 25 -25 25 4 0 14 5 28 11 32 17 10 4 126 -20 171
-26 51 -76 97 -131 122 -41 19 -64 21 -270 20 -130 0 -238 -5 -255 -11z m55
-394 c0 -23 18 -16 23 9 l4 22 8 -22 c9 -29 25 -30 25 -2 0 11 4 18 9 15 10
-6 -9 -86 -21 -86 -4 0 -8 9 -8 20 0 11 -4 20 -10 20 -5 0 -10 -9 -10 -20 0
-11 -4 -20 -10 -20 -5 0 -10 9 -10 20 0 11 -4 20 -10 20 -5 0 -10 12 -10 26 0
14 4 23 10 19 6 -3 10 -13 10 -21z m107 -11 c-3 -10 -5 -4 -5 12 0 17 2 24 5
18 2 -7 2 -21 0 -30z m40 0 c-3 -10 -5 -4 -5 12 0 17 2 24 5 18 2 -7 2 -21 0
-30z m40 0 c-3 -10 -5 -4 -5 12 0 17 2 24 5 18 2 -7 2 -21 0 -30z m40 0 c-3
-10 -5 -4 -5 12 0 17 2 24 5 18 2 -7 2 -21 0 -30z m39 -19 c-8 -39 -26 -46
-26 -9 0 14 5 25 10 25 6 0 10 10 11 23 0 12 3 16 6 9 3 -7 2 -29 -1 -48z m41
19 c-3 -10 -5 -4 -5 12 0 17 2 24 5 18 2 -7 2 -21 0 -30z m40 0 c-3 -10 -5 -4
-5 12 0 17 2 24 5 18 2 -7 2 -21 0 -30z m-260 -40 c-3 -10 -5 -4 -5 12 0 17 2
24 5 18 2 -7 2 -21 0 -30z m40 0 c-3 -10 -5 -4 -5 12 0 17 2 24 5 18 2 -7 2
-21 0 -30z m45 12 c3 -14 1 -25 -3 -25 -5 0 -9 11 -9 25 0 14 2 25 4 25 2 0 6
-11 8 -25z m35 -12 c-3 -10 -5 -4 -5 12 0 17 2 24 5 18 2 -7 2 -21 0 -30z m80
0 c-3 -10 -5 -4 -5 12 0 17 2 24 5 18 2 -7 2 -21 0 -30z m40 0 c-3 -10 -5 -4
-5 12 0 17 2 24 5 18 2 -7 2 -21 0 -30z"/>
<path d="M6096 1296 c-87 -32 -125 -111 -93 -188 20 -48 51 -67 149 -90 45
-10 90 -26 100 -35 27 -24 23 -68 -8 -92 -50 -39 -173 -21 -189 28 -3 11 -11
18 -18 16 -7 -2 -24 -6 -39 -9 -38 -9 -35 -31 10 -76 27 -27 51 -40 90 -49 69
-14 88 -14 148 4 72 21 106 61 112 128 8 98 -31 136 -173 171 -75 19 -105 38
-105 68 0 57 115 82 161 34 20 -20 26 -22 61 -13 21 5 38 13 38 17 0 15 -43
61 -70 75 -43 22 -129 28 -174 11z"/>
<path d="M1640 1260 l0 -39 120 -3 120 -3 -125 -170 c-106 -145 -124 -175
-125 -207 l0 -38 180 0 180 0 0 40 0 40 -125 0 c-69 0 -125 3 -125 6 0 3 56
81 125 174 106 142 125 173 125 204 l0 36 -175 0 -175 0 0 -40z"/>
<path d="M2070 1050 l0 -250 40 0 40 0 0 250 0 250 -40 0 -40 0 0 -250z"/>
<path d="M2270 1051 l0 -251 40 0 40 0 0 99 0 99 93 4 c74 3 100 8 129 26 90
56 89 193 -3 247 -28 17 -56 21 -166 23 l-133 4 0 -251z m257 147 c29 -27 29
-65 1 -95 -19 -20 -31 -23 -100 -23 l-78 0 0 70 0 70 77 0 c65 0 80 -3 100
-22z"/>
<path d="M2720 1051 l0 -251 40 0 40 0 0 99 0 99 93 4 c74 3 100 8 129 26 90
56 89 193 -3 247 -28 17 -56 21 -166 23 l-133 4 0 -251z m257 147 c29 -27 29
-65 1 -95 -19 -20 -31 -23 -100 -23 l-78 0 0 70 0 70 77 0 c65 0 80 -3 100
-22z"/>
<path d="M3170 1050 l0 -250 160 0 160 0 0 40 0 40 -120 0 -120 0 0 70 0 70
95 0 95 0 0 40 0 40 -95 0 -95 0 0 60 0 60 115 0 115 0 0 40 0 40 -155 0 -155
0 0 -250z"/>
<path d="M3570 1051 l0 -251 40 0 40 0 0 100 0 100 68 0 67 0 38 -100 38 -100
46 0 c32 0 44 4 40 13 -3 6 -21 53 -42 104 l-37 92 41 39 c31 30 41 47 42 73
3 85 -13 124 -65 155 -25 15 -57 19 -173 22 l-143 4 0 -251z m271 151 c15 -13
22 -30 22 -52 0 -54 -29 -70 -129 -70 l-84 0 0 70 0 70 84 0 c67 0 88 -4 107
-18z"/>
<path d="M4180 1260 l0 -40 65 0 65 0 0 -210 0 -210 50 0 50 0 0 210 0 210 65
0 65 0 0 40 0 40 -180 0 -180 0 0 -40z"/>
<path d="M4600 1051 l0 -251 40 0 40 0 0 100 0 100 68 0 67 0 38 -100 38 -100
46 0 c32 0 44 4 40 13 -3 6 -21 53 -42 104 l-37 92 41 39 c31 30 41 47 42 73
3 85 -13 124 -65 155 -25 15 -57 19 -173 22 l-143 4 0 -251z m271 151 c15 -13
22 -30 22 -52 0 -54 -29 -70 -129 -70 l-84 0 0 70 0 70 84 0 c67 0 88 -4 107
-18z"/>
<path d="M5111 1057 c-45 -133 -81 -245 -81 -250 0 -4 15 -7 33 -7 32 0 34 3
51 55 l17 55 103 0 102 0 18 -55 17 -55 46 0 c32 0 44 4 41 13 -3 6 -41 119
-84 250 l-79 237 -52 0 -51 0 -81 -243z m160 56 c17 -54 34 -104 37 -110 3
-10 -16 -13 -73 -13 -57 0 -76 3 -73 13 3 6 20 56 37 110 18 53 34 97 36 97 2
0 18 -44 36 -97z"/>
<path d="M5540 1050 l0 -250 35 0 35 0 0 183 0 182 108 -182 107 -183 43 0 42
0 0 250 0 250 -35 0 -35 0 -2 -171 -3 -170 -100 170 -100 170 -47 0 -48 1 0
-250z"/>
<path d="M6450 1050 l0 -250 40 0 40 0 0 250 0 250 -40 0 -40 0 0 -250z"/>
<path d="M6590 1260 l0 -40 65 0 65 0 0 -210 0 -210 50 0 50 0 0 210 0 210 65
0 65 0 0 40 0 40 -180 0 -180 0 0 -40z"/>
<path d="M381 1093 c-29 -23 -31 -66 -5 -95 18 -19 26 -20 132 -14 124 8 164
16 122 26 -33 8 -43 60 -11 60 43 0 19 18 -31 24 -173 19 -183 19 -207 -1z
m63 -16 c22 -16 18 -55 -6 -71 -40 -24 -80 44 -42 71 10 7 21 13 24 13 3 0 14
-6 24 -13z"/>
<path d="M657 1103 c-13 -12 15 -33 44 -33 33 0 38 15 10 30 -22 11 -45 13
-54 3z"/>
<path d="M617 1054 c-18 -18 -2 -24 59 -24 48 0 65 3 62 13 -5 13 -109 23
-121 11z"/>
<path d="M656 995 c-4 -11 2 -15 23 -15 16 0 34 7 41 15 11 13 7 15 -23 15
-22 0 -37 -6 -41 -15z"/>
</g>
</svg>
